<?xml version="1.0" encoding="UTF-8" standalone="no"?>
<!DOCTYPE svg PUBLIC "-//W3C//DTD SVG 1.1//EN" "http://www.w3.org/Graphics/SVG/1.1/DTD/svg11.dtd">
<svg width="100%" height="100%" viewBox="0 0 2000 2000" version="1.1" xmlns="http://www.w3.org/2000/svg" xmlns:xlink="http://www.w3.org/1999/xlink" xml:space="preserve" xmlns:serif="http://www.serif.com/" style="fill-rule:evenodd;clip-rule:evenodd;stroke-linecap:round;stroke-linejoin:round;stroke-miterlimit:1.5;">
    <path d="M1000,2000L0,1000L500,0L1000,750L1500,0L2000,1000L1000,2000Z" style="fill:rgb(255,0,34);stroke:black;stroke-width:20.83px;"/>
    <g transform="matrix(1.8,0,0,1.8,-800,-1600)">
        <path d="M833.333,1833.333L1166.667,1833.333L1000,2000L833.333,1833.333Z" style="fill:rgb(2,2,2);stroke:black;stroke-width:11.57px;"/>
    </g>
    <g transform="matrix(1,0,0,1,50,30)">
        <ellipse cx="550" cy="1070" rx="170" ry="190" style="fill:rgb(2,2,2);stroke:black;stroke-width:20.83px;"/>
    </g>
    <g transform="matrix(1,0,0,1,880,36.666667)">
        <ellipse cx="550" cy="1070" rx="170" ry="190" style="fill:rgb(2,2,2);stroke:black;stroke-width:20.83px;"/>
    </g>
    <g transform="matrix(1.305556,0,0,0.933333,-153.888889,20)">
        <path d="M700,750L500,300L340,750" style="fill:rgb(255,0,34);stroke:black;stroke-width:18.36px;"/>
    </g>
    <g transform="matrix(1.305556,0,0,0.933333,821.111111,50)">
        <path d="M700,750L500,300L340,750" style="fill:rgb(255,0,34);stroke:black;stroke-width:18.36px;"/>
    </g>
</svg>
